
<svg width="100" height="100" viewBox="0 0 100 100" xmlns="http://www.w3.org/2000/svg">
  <!-- Adinkra symbols pattern -->
  <defs>
    <pattern id="adinkra" x="0" y="0" width="50" height="50" patternUnits="userSpaceOnUse">
      <!-- Gye Nyame (Except for God) symbol -->
      <path d="M10,25 C10,15 20,15 25,20 C30,25 20,35 15,30 C10,25 20,15 25,10 C30,5 40,15 35,20 C30,25 20,15 25,20" 
            stroke="#000" fill="none" stroke-width="1.5"/>
      
      <!-- Sankofa symbol (simplified) -->
      <path d="M65,15 C70,15 73,20 70,25 C67,30 60,25 65,20 C70,15 75,20 72,25" 
            stroke="#000" fill="none" stroke-width="1.5"/>
      
      <!-- Dwennimmen (Ram's horns) symbol -->
      <path d="M25,65 C20,60 25,50 30,55 C35,60 30,70 25,65 M35,65 C40,60 35,50 30,55" 
            stroke="#000" fill="none" stroke-width="1.5"/>
      
      <!-- Aya (fern) symbol -->
      <path d="M60,50 L70,50 M65,45 L65,55 M55,60 L75,60 M60,65 L70,65" 
            stroke="#000" fill="none" stroke-width="1.5"/>
    </pattern>
  </defs>
  
  <rect x="0" y="0" width="100" height="100" fill="url(#adinkra)" fill-opacity="0.2"/>
</svg>
